<?xml version="1.0" encoding="UTF-8"?>
<svg id="Layer_2" data-name="Layer 2" xmlns="http://www.w3.org/2000/svg" viewBox="0 0 328.6618 320.3092">
  <defs>
    <style>
      .cls-1 {
        fill: #ffb7c5;
      }
    </style>
  </defs>
  <g id="katman_1" data-name="katman 1">
    <g>
      <path class="cls-1" d="M214.8009,320.3092c-5.8233,.0011-11.2387-1.1899-16.2351-3.5752-20.3608-9.722-30.2243-37.9635-34.8435-67.0857-4.9701,29.064-15.1725,57.186-35.6485,66.6624-16.6086,7.6844-37.6652,2.2613-62.5871-16.1211-24.9219-18.3824-36.3213-36.8998-33.8817-55.0365,3.0082-22.3623,26.8636-40.4124,53.1651-53.7414-29.1907,4.1849-59.0833,3.0992-74.3835-13.4836-12.4094-13.4496-13.7057-35.155-3.8537-64.5145,9.8075-29.2241,23.8532-45.7389,41.7465-49.0849,18.6199-3.4759,40.5166,7.1284,65.2937,31.5814-15.3002-31.27-18.3918-55.4045-9.1671-71.9494C113.2709,8.0616,133.396,0,164.2224,0c30.9679,0,51.1335,8.1346,59.9354,24.1778,10.8538,19.7818,2.3699,48.4697-10.8845,74.8112,21.0057-20.6942,45.7028-37.5687,67.8676-33.3071,17.9701,3.4573,31.8978,20.1552,41.3972,49.6305v.0005c9.4983,29.4747,7.941,51.1636-4.6291,64.463-15.4993,16.3986-45.4045,17.1235-74.5409,12.5876,26.1392,13.6459,49.7758,31.9801,52.5153,54.3774,2.2219,18.1642-9.3996,36.5433-34.5408,54.6264-17.5347,12.6106-33.1173,18.9406-46.5417,18.9417Zm-54.2546-101.7274l6.7248,.0406c3.6289,64.3012,20.5999,85.5383,34.1987,92.0306,14.123,6.7434,32.9452,1.7799,55.938-14.7557,22.9928-16.5378,33.6876-32.8004,31.7882-48.3381-1.8293-14.9575-16.5642-37.8045-76.3723-61.701l2.1012-6.3881c62.3141,16.267,87.736,6.6294,98.0875-4.3231,10.7518-11.3747,11.798-30.8138,3.1124-57.7673h0c-8.6867-26.9562-20.8861-42.1238-36.2571-45.0809-14.7864-2.8442-41.0616,4.1679-82.1562,53.7671l-5.4362-3.9595c34.6022-54.3248,33.2237-81.4762,25.9758-94.6873-7.5298-13.7227-25.7071-20.6811-54.0287-20.6811-28.2004,0-46.3454,6.8986-53.9316,20.5045-12.8525,23.0515,5.5453,62.0267,23.2423,90.6642l-5.457,3.9244c-21.5173-25.887-52.6041-55.7324-78.558-50.8791-15.3123,2.8629-27.6252,17.8703-36.5971,44.6055-9.0103,26.8498-8.1971,46.2977,2.4176,57.8018,10.2183,11.0753,35.5196,21.021,98.0272,5.4998l2.0239,6.4133c-60.09,23.1771-75.098,45.8442-77.1071,60.7787-2.0864,15.5135,8.412,31.9044,31.2036,48.7164,22.7916,16.8098,41.5524,22.0026,55.7576,15.428,13.675-6.3289,30.9004-27.3609,35.3025-91.6139Z"/>
      <path class="cls-1" d="M198.8297,239.8654c-1.6768,0-3.2615-.8126-4.2408-2.1747-.8137-1.1285-1.1383-2.5092-.9146-3.8855,.1645-1.0155,.6152-1.9389,1.2941-2.6814-4.9504-9.2296-11.9866-22.4686-15.7197-29.5806-4.5863-8.4866-9.0289-16.8526-12.8749-25.7071l-.0559-.1267c-.6448-1.4723-1.4301-3.2637-2.1659-5.008-5.1982,11.4701-11.2606,22.1462-16.0915,30.3636-3.9162,6.9134-11.3199,19.8268-16.5323,28.8425,1.5606,1.8029,1.7273,4.5161,.2528,6.5142-.9804,1.3292-2.552,2.1221-4.2041,2.1221-1.1219,0-2.1933-.3531-3.0976-1.0221-1.1208-.8247-1.8539-2.0398-2.0628-3.4194-.2084-1.3785,.1327-2.7548,.9596-3.8778,.9788-1.327,2.5492-2.1199,4.2003-2.1199,.2495,0,.4995,.0186,.7474,.0548,4.7968-9.2866,11.6818-22.495,15.3808-29.5054,3.0312-5.9133,6.0525-11.7382,9.3097-17.4596-4.1575,4.2584-8.8162,8.7767-14.2118,13.7967-5.6884,5.4631-16.7457,15.9758-24.2414,23.0493,.7737,1.69,.607,3.7243-.5412,5.2805-.9799,1.3281-2.5514,2.1221-4.2041,2.1221-1.1203,0-2.1906-.352-3.0943-1.0188-1.123-.8269-1.8561-2.0431-2.065-3.4216-.2084-1.3785,.1327-2.757,.9612-3.88,.9777-1.3292,2.5498-2.1221,4.2035-2.1221,.7562,0,1.4887,.1601,2.1632,.4683,7.3269-7.6043,17.7732-18.3643,23.3339-24.0341,6.6711-6.9688,13.2719-13.7643,20.5177-20.1399l.1228-.1086c1.1987-1.061,2.6561-2.3507,4.084-3.5806-12.5087-1.429-24.5326-3.9255-33.8362-6.0026-7.7705-1.6055-22.3332-4.6916-32.5218-6.8898-.9311,1.537-2.6101,2.5119-4.4635,2.5119-.5637,0-1.1224-.0916-1.6604-.272-1.3237-.4458-2.3924-1.378-3.0131-2.6254-.6213-1.2497-.7178-2.666-.2725-3.9881,.7101-2.1275,2.6989-3.5598,4.9476-3.5598,.5631,0,1.1208,.091,1.6582,.2709,1.8583,.6251,3.1677,2.2213,3.4847,4.0758,10.3608,1.7267,25.0464,4.2293,32.7998,5.5908,6.5559,1.0698,13.0252,2.1588,19.4714,3.5044-5.3276-2.6507-11.0556-5.6983-17.4892-9.2938-6.9968-3.7676-20.3926-11.066-29.3738-16.0032-.9503,.8708-2.2092,1.3758-3.5324,1.3758-.5631,0-1.1208-.091-1.6576-.2703-2.7302-.9157-4.2057-3.8811-3.2906-6.6102,.7156-2.1314,2.7049-3.5625,4.9504-3.5625,.5642,0,1.123,.0916,1.6615,.272,1.3209,.442,2.3907,1.3736,3.0126,2.6227,.4584,.9218,.6322,1.9334,.5138,2.9314,9.4731,4.6351,22.9183,11.2765,30.0329,14.8369,8.6813,4.2134,17.175,8.412,25.4626,13.3525l.1557,.0921c1.3566,.8033,3.0038,1.7777,4.5896,2.7455-2.6189-12.3019-4.073-24.4646-5.06-33.9234-.9541-7.9004-2.6616-22.6874-3.8164-33.0247-2.3271-.5253-4.0698-2.6095-4.0698-5.0935,0-2.8788,2.3414-5.2213,5.2202-5.2213s5.2213,2.3425,5.2213,5.2213c0,1.9598-1.0967,3.7089-2.7537,4.5989,1.6702,10.4442,3.9711,25.1659,5.1346,32.875,1.0714,6.5581,2.0979,13.0383,2.8722,19.5756,.8181-5.8952,1.8852-12.297,3.2472-19.5394,1.3379-7.7952,3.9963-22.8196,5.8266-32.9397-1.6253-.9009-2.6989-2.6375-2.6989-4.5704,0-2.8788,2.3425-5.2213,5.2213-5.2213s5.2202,2.3425,5.2202,5.2213c0,2.5092-1.7788,4.611-4.1421,5.1094-1.384,10.4705-3.403,25.3315-4.5117,33.1941-1.2327,9.5712-2.5114,18.9598-4.5578,28.3885l-.0274,.1311c-.3367,1.5737-.7468,3.488-1.168,5.3348,10.9185-6.2768,22.0749-11.4038,30.7946-15.2547,7.1854-3.3114,20.737-9.4731,30.2616-13.7611-.216-2.3721,1.2327-4.674,3.5982-5.4379,.5209-.1678,1.0594-.2528,1.6022-.2528,2.2745,0,4.2726,1.4558,4.9701,3.6229,.8828,2.7373-.6273,5.6852-3.3668,6.5696-.5209,.1678-1.0594,.2528-1.6011,.2528-1.3719,0-2.6638-.5385-3.6223-1.4635-9.3886,4.7738-22.6924,11.4778-29.7133,14.9712-5.9133,3.0307-11.7651,5.9944-17.7529,8.7383,5.8617-1.0298,12.2816-1.9778,19.5932-2.9029,7.8302-1.117,22.9457-3.1952,33.1393-4.5578,.3597-1.8232,1.6823-3.3778,3.5225-3.9705,.5198-.1678,1.0594-.2533,1.6033-.2533,2.2734,0,4.2704,1.4547,4.9668,3.6196,.8828,2.7411-.6284,5.6884-3.3679,6.5707-.5198,.1678-1.0594,.2533-1.6033,.2533h0c-1.906,0-3.6168-1.0221-4.5315-2.6276-10.391,1.8956-25.1544,4.5315-32.977,5.8875-9.484,1.7618-18.809,3.4249-28.4181,4.3697l-.147,.0148c-1.5968,.1618-3.539,.3592-5.422,.5242,9.3217,8.4652,17.6257,17.5122,23.9656,24.6302,5.3792,5.8497,15.3995,16.857,22.3798,24.5819,.6416-.2731,1.3303-.4145,2.0376-.4145,1.6768,0,3.2626,.8115,4.2419,2.1714,.8148,1.134,1.1394,2.5169,.9135,3.8943-.2259,1.3763-.9738,2.5816-2.1067,3.3942-.8905,.6427-1.9433,.9826-3.0433,.9826-1.6757,0-3.2615-.8126-4.2419-2.1725-1.1438-1.5913-1.2743-3.6519-.4474-5.3419-7.3258-7.3707-17.7826-17.9734-23.3646-23.6892-4.6981-4.6976-9.3151-9.3596-13.7632-14.2167,2.7779,5.2635,5.649,11.0835,8.7734,17.759,3.4754,7.1295,9.971,20.6317,14.5024,30.1421,.204-.0241,.4113-.0362,.6196-.0362,1.6768,0,3.2626,.8115,4.2408,2.1725,.8137,1.1307,1.1394,2.5125,.9146,3.8888-.2248,1.3752-.9717,2.5816-2.1034,3.3953-.8938,.6437-1.9477,.9848-3.0477,.9848Z"/>
    </g>
  </g>
</svg>